<svg width="40" height="42" viewBox="0 0 40 42" fill="none" xmlns="http://www.w3.org/2000/svg">
<path d="M0.306641 7C0.306641 3.13401 3.44065 0 7.30664 0H32.9991C36.8651 0 39.9991 3.13401 39.9991 7V34.3102C39.9991 38.1762 36.8651 41.3102 32.9991 41.3102H7.30663C3.44064 41.3102 0.306641 38.1762 0.306641 34.3102V7Z" fill="black"/>
<ellipse cx="20.557" cy="18.6751" rx="15.639" ry="16.7551" fill="white"/>
<path d="M34.8928 10.5041C33.412 7.86365 31.4035 5.77317 28.8666 4.23223C26.3294 2.69121 23.5595 1.9209 20.5549 1.9209C17.5507 1.9209 14.7799 2.69145 12.2432 4.23223C9.70613 5.77309 7.69766 7.86365 6.21692 10.5041C4.73639 13.1446 3.99609 16.0279 3.99609 19.1541C3.99609 22.9094 5.04881 26.2863 7.15477 29.2855C9.2605 32.2851 11.9808 34.3606 15.3154 35.5124C15.7036 35.5874 15.9909 35.5347 16.1778 35.3555C16.3647 35.1762 16.458 34.9516 16.458 34.6826C16.458 34.6377 16.4543 34.234 16.4471 33.4709C16.4397 32.7078 16.4363 32.0421 16.4363 31.4741L15.9403 31.5634C15.6241 31.6237 15.2253 31.6492 14.7437 31.642C14.2623 31.635 13.7626 31.5825 13.2453 31.4849C12.7277 31.3881 12.2462 31.1637 11.8006 30.8122C11.3552 30.4606 11.039 30.0004 10.8521 29.4324L10.6365 28.916C10.4928 28.5722 10.2665 28.1903 9.95745 27.7717C9.64836 27.3527 9.33579 27.0687 9.0196 26.9191L8.86864 26.8066C8.76805 26.7319 8.67471 26.6417 8.58839 26.5371C8.50215 26.4325 8.43759 26.3278 8.39446 26.223C8.35127 26.1181 8.38706 26.032 8.50223 25.9645C8.61739 25.897 8.82552 25.8642 9.12751 25.8642L9.55857 25.9312C9.84606 25.9912 10.2017 26.1703 10.6259 26.4697C11.0498 26.7688 11.3983 27.1577 11.6715 27.6362C12.0022 28.2497 12.4007 28.7172 12.8681 29.0389C13.3351 29.3606 13.806 29.5212 14.2802 29.5212C14.7545 29.5212 15.1641 29.4838 15.5092 29.4093C15.8539 29.3345 16.1774 29.222 16.4794 29.0725C16.6087 28.0698 16.961 27.2995 17.5357 26.7611C16.7165 26.6715 15.98 26.5365 15.3258 26.3571C14.6719 26.1774 13.9963 25.8858 13.2993 25.4815C12.6019 25.0778 12.0233 24.5764 11.5635 23.9783C11.1036 23.3799 10.7261 22.5942 10.4317 21.6221C10.1371 20.6496 9.98977 19.5277 9.98977 18.2562C9.98977 16.4457 10.5577 14.9051 11.6932 13.6334C11.1613 12.2723 11.2115 10.7465 11.844 9.05602C12.2609 8.92123 12.8791 9.02239 13.6983 9.35885C14.5177 9.69548 15.1176 9.98384 15.4986 10.2229C15.8797 10.4619 16.185 10.6645 16.415 10.8287C17.7521 10.4399 19.1319 10.2455 20.5548 10.2455C21.9777 10.2455 23.3577 10.4399 24.6949 10.8287L25.5142 10.2904C26.0744 9.93126 26.736 9.60211 27.4974 9.30289C28.2592 9.00384 28.8418 8.92147 29.2444 9.05626C29.891 10.7468 29.9486 12.2725 29.4165 13.6337C30.552 14.9053 31.1201 16.4463 31.1201 18.2564C31.1201 19.5279 30.9723 20.6533 30.6781 21.6333C30.3836 22.6135 30.0029 23.3983 29.5359 23.9895C29.0684 24.5807 28.4861 25.0781 27.7891 25.4818C27.0919 25.8857 26.4161 26.1773 25.7622 26.357C25.1081 26.5367 24.3716 26.6717 23.5524 26.7614C24.2995 27.4344 24.6732 28.4966 24.6732 29.9476V34.682C24.6732 34.9509 24.7631 35.1755 24.9429 35.3549C25.1226 35.534 25.4063 35.5868 25.7945 35.5117C29.1296 34.36 31.8499 32.2844 33.9555 29.2849C36.0609 26.2856 37.114 22.9088 37.114 19.1535C37.1133 16.0277 36.3726 13.1446 34.8928 10.5041Z" fill="black"/>
</svg>
